<?xml version="1.0" encoding="utf-8"?>
<!-- Generator: Adobe Illustrator 24.2.0, SVG Export Plug-In . SVG Version: 6.00 Build 0)  -->
<svg version="1.1" xmlns="http://www.w3.org/2000/svg" xmlns:xlink="http://www.w3.org/1999/xlink" x="0px" y="0px"
	 viewBox="0 0 1231.2 331.3" style="enable-background:new 0 0 1231.2 331.3;" xml:space="preserve">
<style type="text/css">
	.st0{display:none;}
	.st1{display:inline;stroke:#000000;stroke-miterlimit:10;}
	.st2{fill:#EEE;}
	.st3{fill:url(#SVGID_1_);}
</style>
<g id="Layer_2" class="st0">
	<rect x="-19" y="-14" class="st1" width="1273" height="365"/>
</g>
<g id="Layer_1">
	<g id="Layer_2_1_">
		<g id="Layer_1-2">
			<path class="st2" d="M141.7,237.7c-0.6-0.2-1.1-0.3-1.8-0.4h-0.1c3.1-5.2,3.5-11.5,1-17c-2.6-5.7-7.8-9.8-14-11
				c2.8-5.1,3-11.2,0.4-16.4c-2.5-5.3-7.3-9.1-12.9-10.4l0.6-0.7l5.9-5.9c4.8-4.9,9.9-9.9,14.8-14.8c4.6-4.5,6.4-9.9,5.3-16
				c-1-6.9-5.9-12.6-12.5-14.7c-6.9-2.4-13.3-0.9-18.6,4.3c-1.7,1.7-3.4,3.3-5,5L91,153.4c-10.7,10.7-21.3,21.3-32,32
				c-3.2,3.2-6.4,6.5-9.7,9.8l-4.1,4.2c-1.5-5.8-4.2-11.2-8-15.8c-5.3-6.6-10.7-10.4-17-12c-7.5-1.9-14.1,1.8-16.2,9.2
				c-0.9,3.2-0.7,6.6,0.4,9.7c3.3,8.9,4.9,18.5,4.7,28c-0.2,5.2-0.6,10.4-1,15.5c-0.1,1.3-0.2,2.6-0.3,3.9c0,0.5-0.1,1-0.1,1.4
				c0,1.6-0.2,3.3-0.7,4.8c-4.2,9.4-6.4,18-6.9,26.3c-0.6,12,1.9,21.8,7.8,29.8c3.6,4.6,7.5,9,11.8,13l1.5,1.5
				c3.1,3,6.9,6.9,11.2,9.6c7.4,4.7,16,7.1,24.7,7c4.4,0,8.8-0.5,13.1-1.4c15.1-3.1,28.3-10.5,40.5-22.6c4.4-4.4,8.8-8.8,13.1-13.2
				c8.4-8.5,17.1-17.2,25.8-25.6c4.7-4.5,6.6-11.1,5-17.3C153,244.7,148.1,239.6,141.7,237.7z M16,240.5c0.1-3.2,0.4-6.5,0.7-9.7
				s0.6-6.3,0.7-9.5c0.5-11.3-1.3-22.5-5.1-33.1c-0.3-0.8-0.5-1.7-0.6-2.6c-0.3-1.8,0.4-3.7,1.7-5c0.9-0.7,2-1.1,3.2-1.1
				c0.7,0,1.3,0.1,2,0.3c3.5,0.9,6.6,3,9.8,6.4c6.1,6.5,9.2,13.5,9.4,21.5c0.1,2.3,1,3.8,2.9,4.4c2.1,0.7,3.6-0.4,4.9-1.7
				c14.3-14.3,28.6-28.6,42.9-42.9l7-7c6.7-6.7,13.3-13.3,20-20c1.8-1.9,4.4-2.9,7-2.9c2.7,0.1,5.2,1.2,7.1,3.2
				c4.1,4.1,4.2,10.2,0.2,14.1c-20.2,20.2-40.6,40.7-60.8,60.7c-1.3,1.3-2.5,2.9-1.6,5.2c0.5,1.4,1.6,2.4,3,2.7
				c1.5,0.3,3.1-0.2,4.2-1.4c3.2-3.2,6.4-6.4,9.7-9.6l8.6-8.5c3.6-3.6,7.2-7.2,10.7-10.7c1.8-1.9,4.2-2.9,6.8-3l0,0
				c2.9,0.1,5.6,1.4,7.5,3.5c3.6,3.8,3.5,9.9-0.3,13.5c0,0,0,0-0.1,0.1l-15.2,15.2L89,236.1c-2.2,2.3-1.8,4.2-1,5.5
				c1,1.8,3.1,2.7,5.1,2.1c0.9-0.4,1.7-0.9,2.3-1.6l3.4-3.4c5.9-5.8,12-11.9,17.9-17.9c3.1-3.2,6.4-4.1,10.2-2.9
				c3.9,1.2,6.7,4.5,7.2,8.6c0.5,2.9-0.6,5.8-2.7,7.7c-5.2,5.1-10.3,10.3-15.4,15.4l-5.6,5.6c-0.5,0.4-0.9,0.9-1.4,1.4
				c-1.7,1.8-1.6,4.6,0.1,6.2s4.6,1.6,6.2-0.1c2.7-2.6,5.3-5.2,7.9-7.9c2.3-2.3,4.7-4.7,7-7c3.8-3.8,9.5-3.7,13.5,0.3
				c2,1.9,3.2,4.5,3.2,7.2c0,2.4-1,4.7-2.7,6.4l-9,9c-10.4,10.4-21.1,21.2-31.8,31.7c-10.2,10-22,16.5-35,19.1
				c-2.6,0.5-5.2,0.8-7.2,1c-0.7,0.1-1.3,0.1-1.8,0.2c-13.3-0.1-22.6-3.7-30.1-11.7c-2.4-2.5-4.8-5-7.2-7.3
				c-1.1-1.1-2.3-2.2-3.4-3.3c-6.4-6.4-9.8-14.3-10.4-24.2c-0.5-8.7,1.1-17.4,4.7-25.3C14.5,247.7,15.8,244.3,16,240.5z"/>
			<polygon class="st2" points="155.7,176.1 159.7,180.9 163.7,177.2 159.4,172.8 			"/>
			<polygon class="st2" points="118.5,99.2 117.6,93.2 112.1,94.2 113.7,100.2 			"/>
			<polygon class="st2" points="84.9,128.9 79,127.3 77.9,132.8 84,133.7 			"/>
			<polygon class="st2" points="161.4,170.6 166.1,174.5 169.4,170 164.4,166.6 			"/>
			<polygon class="st2" points="141.8,183.5 143.7,189.3 148.9,187.3 146.4,181.7 			"/>
			<polygon class="st2" points="91.8,114.7 86.9,111.1 83.9,115.7 89.1,118.9 			"/>
			<polygon class="st2" points="165.9,164.1 171.3,167 173.6,161.9 167.9,159.6 			"/>
			<polygon class="st2" points="110.8,101 108.7,95.3 103.6,97.4 106.3,102.9 			"/>
			<polygon class="st2" points="103.7,104.3 100.4,99.1 95.8,102.2 99.5,107.1 			"/>
			<polygon class="st2" points="97.1,108.8 93.2,104.6 89.1,108.3 93.4,112.2 			"/>
			<polygon class="st2" points="87.7,121.5 82.2,118.8 80.1,124 85.8,126 			"/>
			<polygon class="st2" points="149.2,180.5 152.1,185.8 156.8,183 153.4,177.9 			"/>
			<polygon class="st2" points="169,156.8 174.8,158.5 176.1,153.2 170.1,152 			"/>
			<polygon class="st2" points="170.8,144.2 170.8,149.1 176.6,149.6 176.9,144.2 			"/>
			<path class="st2" d="M97.9,134.6l1.1-4l-4.1-1.4l-0.2,0.4c-0.9,2.3-1.3,3.6-0.7,4.4c0.5,0.5,1.3,0.8,2.1,0.7c0.4,0,0.9,0,1.4-0.1
				L97.9,134.6z"/>
			<polygon class="st2" points="140,174.2 144.7,172.1 142.6,168.1 138.4,170 			"/>
			<polygon class="st2" points="156.4,149.4 160.8,150.2 161.4,145.2 156.9,144.8 			"/>
			<polygon class="st2" points="109.1,117.5 113.1,115.2 111,111.2 106.6,113.8 			"/>
			<polygon class="st2" points="107.2,119.1 104.1,115.8 100.3,119.2 103.6,122.1 			"/>
			<polygon class="st2" points="156.6,160.8 152.9,158.4 150.1,162.1 153.6,164.9 			"/>
			<polygon class="st2" points="115.5,114.2 119.9,112.9 118.8,108.5 113.9,110.1 			"/>
			<polygon class="st2" points="102.3,124.3 98.5,121.8 96,126.3 100,128.3 			"/>
			<polygon class="st2" points="151.4,167.2 148.3,164 144.8,166.8 147.4,170.5 			"/>
			<polygon class="st2" points="160.1,153.2 155.7,151.9 154.1,156.2 158.2,158.1 			"/>
			<polygon class="st2" points="176.8,140.6 176.2,137.3 170.3,138.2 170.6,141.1 			"/>
			<polygon class="st2" points="140.2,190.2 139,184.2 136,184.7 137,190.6 			"/>
			<polygon class="st2" points="83.6,136.8 77.7,136.3 77.4,139.5 83.6,139.5 			"/>
			<polygon class="st2" points="124.3,98.8 124.3,92.9 121.1,92.9 121.5,98.8 			"/>
			<polygon class="st2" points="161.3,141.8 160.9,138.7 156.4,139.4 157,142.4 			"/>
			<polygon class="st2" points="122.4,112.5 125.2,112.5 125.2,108.1 122.1,108.2 			"/>
			<polygon class="st2" points="93,140.5 97.5,140.5 97.3,137.5 93,137.5 			"/>
			<polygon class="st2" points="133.1,171.3 133.8,175.8 137,174.9 135.9,170.6 			"/>
			<path class="st2" d="M245.1,83.3c3.6-0.1,7.3,0.7,10.6,2.2l0.5,0.2l2-6.6l-0.4-0.2c-1.1-0.6-5.3-2.4-12.9-2.4
				c-17,0-28.4,11.5-28.4,28.6c0,16.8,10.6,27.6,26.9,27.6c6.8,0,11.9-1.3,14.4-2.6l0.4-0.2l-1.7-6.5l-0.6,0.3
				c-3.5,1.5-7.3,2.2-11.1,2.2c-12.6,0-20.1-7.8-20.1-21C224.7,91.5,232.5,83.3,245.1,83.3z"/>
			<rect x="265.4" y="74.5" class="st2" width="8" height="57.4"/>
			<path class="st2" d="M288.1,77.2c-2.6-0.1-4.8,2-4.9,4.7c0,0.1,0,0.1,0,0.2c-0.1,2.6,1.9,4.7,4.5,4.8c0.1,0,0.1,0,0.2,0
				c1.4,0,2.7-0.5,3.7-1.4c0.9-0.9,1.3-2.1,1.2-3.3c0.1-2.6-1.9-4.8-4.5-4.9C288.3,77.2,288.2,77.2,288.1,77.2z"/>
			<rect x="284.1" y="92.4" class="st2" width="8" height="39.4"/>
			<path class="st2" d="M321,98.2c2.7-0.1,5.4,0.5,7.9,1.8l0.5,0.3l1.9-6.4l-0.4-0.2c-3.1-1.4-6.5-2-9.9-2
				c-12.5,0-21.1,8.6-21.1,20.9c0,12,7.9,20.1,19.6,20.1c3.9,0.1,7.7-0.7,11.3-2.3l0.3-0.2l-1.4-6.2l-0.6,0.2
				c-2.6,1.2-5.5,1.9-8.4,1.9c-7.7,0-12.8-5.6-12.8-13.9C308,103.7,313.1,98.2,321,98.2z"/>
			<path class="st2" d="M370.1,92.4h-9.8l-11.4,13.4c-0.8,1-1.8,2.2-2.7,3.4V74.5h-7.9v57.4h7.9v-14.8l3-3.4l13,18.1h9.8l-17.3-23.1
				L370.1,92.4z"/>
			<path class="st2" d="M409.1,91.5c-11.7,0-19.5,8.4-19.5,20.9c0,11.9,7.8,20.3,18.9,20.3c9.8,0,19.6-6.5,19.6-20.9
				C428.1,99.7,420.5,91.5,409.1,91.5z M408.8,126.5c-6.5,0-11.2-6-11.2-14.3c0-7.2,3.5-14.4,11.3-14.4c7.6,0,11,7.4,11,14.3
				C419.9,120.4,415.2,126.5,408.8,126.5z"/>
			<path class="st2" d="M453.4,91.5c-4.5,0-8.5,2.8-10.5,7.2l-0.2-6.4h-7.1v0.5c0.2,3.3,0.3,7,0.3,12v26.9h7.9v-21
				c0-1.1,0.1-2.1,0.3-3.2c0.9-5.2,4.4-8.6,8.9-8.6c0.8,0,1.5,0.1,2.3,0.2l0.6,0.1v-7.6l-0.4-0.1C454.8,91.6,454.1,91.5,453.4,91.5z
				"/>
			<path class="st2" d="M488.1,81.2l-7.8,2.1v9.1h-6v6.3h6v20.5c0,5,0.9,8.3,2.8,10.3c1.8,2,4.5,3.1,7.9,3.1c2.2,0.1,4.3-0.3,6.4-1
				l0.3-0.1l-0.4-6.2l-0.6,0.2c-1.3,0.3-2.6,0.5-3.9,0.5c-3.3,0-4.7-2.1-4.7-7V98.7h10v-6.3h-10V81.2z"/>
			<path class="st2" d="M533,122.1v-14.4c0-7.4-2.6-16.2-15.1-16.2c-4.5-0.1-9,1.1-12.9,3.5l-0.3,0.2l1.9,5.6l0.5-0.3
				c2.9-1.8,6.3-2.8,9.7-2.8c5.5,0,8.2,2.8,8.2,8.4v0.3c-9,0-15.7,2-19.5,5.8c-2.4,2.4-3.7,5.6-3.6,9c0,5.6,3.8,11.5,12.3,11.5
				c4.4,0.1,8.7-1.8,11.6-5.2l0.5,4.3h7.4l-0.1-0.6C533.2,128.2,533,125.2,533,122.1z M525.2,112.2v6.2c0,0.7-0.1,1.4-0.4,2.1
				c-1.3,3.7-4.9,6.2-8.8,6.1c-2.9,0-6.1-1.6-6.1-6.2c-0.1-1.8,0.6-3.5,1.9-4.8c2.3-2.2,6.5-3.3,12.7-3.3L525.2,112.2z"/>
			<path class="st2" d="M563.8,91.5c-5.3-0.2-10.3,2.3-13.4,6.6l-0.3-5.8h-7.3v0.5c0.2,3.8,0.3,7.7,0.3,12.5v42.1h7.9v-20
				c2.8,3.4,7.1,5.3,11.5,5.2c8.9,0,18-6.5,18-21.2C580.6,100,573.5,91.5,563.8,91.5z M561.7,98.1c7.5,0,10.9,6.9,10.9,13.8
				c0,8.8-4.3,14.3-11.2,14.3c-4.7,0-8.9-3.2-10-7.8c-0.2-0.9-0.3-1.8-0.3-2.8v-6.6C551.4,103.3,555.9,98.6,561.7,98.1L561.7,98.1z"
				/>
			<path class="st2" d="M614.7,81.2l-7.8,2.1v9.1h-6v6.3h6v20.5c0,5,0.9,8.3,2.8,10.3s4.5,3.1,7.9,3.1c2.2,0.1,4.3-0.3,6.4-1
				l0.3-0.1l-0.4-6.2l-0.6,0.2c-1.3,0.3-2.6,0.5-3.9,0.5c-3.3,0-4.7-2.1-4.7-7V98.7h10v-6.3h-10V81.2z"/>
			<path class="st2" d="M647.8,91.5c-11.7,0-19.6,8.4-19.6,20.9c0,11.9,7.8,20.3,18.9,20.3c9.8,0,19.6-6.5,19.6-20.9
				C666.8,99.7,659.2,91.5,647.8,91.5z M647.5,126.5c-6.5,0-11.2-6-11.2-14.3c0-7.2,3.5-14.4,11.3-14.4c7.6,0,11,7.4,11,14.3
				C658.7,120.4,654,126.5,647.5,126.5z"/>
			<path class="st2" d="M709.8,98.2c2.7-0.1,5.4,0.5,7.8,1.8l0.5,0.3l1.9-6.4l-0.4-0.2c-3.1-1.4-6.5-2-9.9-2
				c-12.4,0-21.1,8.6-21.1,20.9c0,12,7.9,20.1,19.6,20.1c3.9,0.1,7.7-0.7,11.3-2.3l0.3-0.2l-1.4-6.2l-0.5,0.2
				c-2.6,1.2-5.5,1.9-8.4,1.9c-7.7,0-12.8-5.6-12.8-13.9C696.8,103.7,701.9,98.2,709.8,98.2z"/>
			<path class="st2" d="M743.3,91.5c-11.7,0-19.5,8.4-19.5,20.9c0,11.9,7.8,20.3,18.9,20.3c9.8,0,19.6-6.5,19.6-20.9
				C762.3,99.7,754.7,91.5,743.3,91.5z M743,126.5c-6.5,0-11.2-6-11.2-14.3c0-7.2,3.5-14.4,11.3-14.4c7.6,0,11,7.4,11,14.3
				C754.2,120.4,749.5,126.5,743,126.5z"/>
			<path class="st2" d="M789.8,91.5c-5-0.1-9.6,2.3-12.5,6.3l-0.3-5.5h-7.2v0.5c0.2,3,0.3,6.1,0.3,10.4v28.5h8v-23.6
				c0-1.1,0.1-2.1,0.5-3.1c1.1-4,4.8-6.7,8.9-6.8c6.9,0,8.4,5.9,8.4,10.8v22.7h8v-23.4C803.9,92.4,792.1,91.5,789.8,91.5z"/>
			<path class="st2" d="M823.3,81.2l-7.8,2.1v9.1h-6v6.3h6v20.5c0,5,0.9,8.3,2.8,10.3s4.5,3.1,7.9,3.1c2.2,0.1,4.3-0.3,6.4-1
				l0.3-0.1l-0.4-6.2l-0.6,0.2c-1.3,0.3-2.6,0.5-3.9,0.5c-3.3,0-4.7-2.1-4.7-7V98.7h10v-6.3h-10V81.2z"/>
			<rect x="840.2" y="92.4" class="st2" width="8" height="39.4"/>
			<path class="st2" d="M844.2,77.2c-2.6-0.1-4.8,2-4.9,4.7c0,0.1,0,0.1,0,0.2c-0.1,2.6,1.9,4.7,4.5,4.8c0.1,0,0.1,0,0.2,0
				c1.4,0,2.7-0.5,3.7-1.4c0.9-0.9,1.3-2.1,1.3-3.3c0.1-2.6-1.9-4.8-4.5-4.9C844.4,77.2,844.3,77.2,844.2,77.2z"/>
			<path class="st2" d="M878.4,91.5c-5-0.1-9.6,2.3-12.5,6.3l-0.3-5.4h-7.2V93c0.2,3,0.3,6.1,0.3,10.4v28.5h8v-23.6
				c0-1.1,0.1-2.1,0.5-3.1c1.1-4,4.8-6.7,8.9-6.8c6.9,0,8.4,5.9,8.4,10.8v22.7h8v-23.4C892.5,92.4,880.7,91.5,878.4,91.5z"/>
			<path class="st2" d="M936,120.9V92.4h-8v24.1c0,1.2-0.2,2.3-0.6,3.4c-1.4,3.6-4.9,6-8.8,6c-5.4,0-8.1-3.8-8.1-11.7V92.4h-8v23
				c0,15.6,9.6,17.3,13.8,17.3c4.9,0.1,9.6-2.3,12.4-6.3l0.3,5.4h7.2v-0.5C936.1,128.6,936,125.3,936,120.9z"/>
			<path class="st2" d="M975.4,98.2c-2.9-4.3-7.4-6.6-13.1-6.6c-10.9,0-18.5,8.7-18.5,21.2c0,12.1,7.6,19.9,19.4,19.9
				c4.5,0.1,8.9-0.7,13-2.4l0.4-0.2l-1.4-6l-0.5,0.2c-3.3,1.4-6.9,2.1-10.4,1.9c-7.6,0-12.3-4.6-12.7-12.3h26.9l0.1-0.8
				c0.1-1,0.2-2,0.2-3C978.7,105.9,977.6,101.8,975.4,98.2z M961.8,97.5c2.3-0.1,4.6,0.8,6.3,2.4c2.5,2.5,2.8,6.3,2.9,8h-19.3
				C952.2,103.8,955,97.6,961.8,97.5z"/>
			<path class="st2" d="M1181.9,0H94.3C66.6,0,44.1,22.5,44.1,50.3l0,0v35c0,2.6,2.1,4.8,4.8,4.8l0,0c2.6,0,4.8-2.1,4.8-4.8v-35
				c0-22.5,18.2-40.7,40.7-40.7h1087.6c22.5,0,39.7,18.2,39.7,40.7v116.3c0,22.5-17.2,40.7-39.7,40.7H182.8c-2.6,0-4.8,2.1-4.8,4.8
				l0,0c0,2.6,2.1,4.8,4.8,4.8h999.1c27.8,0,49.3-22.5,49.3-50.3V50.3C1231.2,22.5,1209.7,0,1181.9,0z"/>
		</g>
	</g>
	
		<linearGradient id="SVGID_1_" gradientUnits="userSpaceOnUse" x1="-984.6909" y1="-535.5056" x2="-984.6909" y2="-432.1317" gradientTransform="matrix(-1 0 0 -1 116.0967 -375.91)">
		<stop  offset="0" style="stop-color:#62DEBD"/>
		<stop  offset="1" style="stop-color:#669BBC"/>
	</linearGradient>
	<path class="st3" d="M1051.2,161.4l104.8-45.8c4.9-2.1,4.9-8.4,0-10.5l-104.8-45.8c-4.3-1.9-9.3,0.9-9.3,5.2v91.7
		C1041.9,160.4,1046.9,163.3,1051.2,161.4z"/>
</g>
</svg>
