<svg xmlns="http://www.w3.org/2000/svg" xmlns:xlink="http://www.w3.org/1999/xlink" viewBox="0 0 1190.3 331.29">
    <defs>
        <style>
        .cls-1 {
            fill: url(#linear-gradient);
        }

        .cls-2 {
            fill: url(#linear-gradient-2);
        }

        .cls-3 {
            fill: url(#linear-gradient-3);
        }

        .cls-4 {
            fill: url(#linear-gradient-4);
        }

        .cls-5 {
            fill: url(#linear-gradient-5);
        }

        .cls-6 {
            fill: url(#linear-gradient-6);
        }

        .cls-7 {
            fill: url(#linear-gradient-7);
        }

        .cls-8 {
            fill: url(#linear-gradient-8);
        }

        .cls-9 {
            fill: url(#linear-gradient-9);
        }

        .cls-10 {
            fill: url(#linear-gradient-10);
        }
        .fill {
        	fill: #eee;
        }
        </style>
        <linearGradient id="linear-gradient" x1="36.74" y1="1090.3" x2="36.74" y2="1082.91" gradientTransform="matrix(5.22, 0, 0, -5.22, 848.34, 5786.24)" gradientUnits="userSpaceOnUse">
            <stop offset="0" stop-color="#62DEBD" />
            <stop offset="1" stop-color="#669BBC" />
        </linearGradient>
        <linearGradient id="linear-gradient-2" x1="33.83" y1="1093.21" x2="33.83" y2="1080" xlink:href="#linear-gradient" />
        <linearGradient id="linear-gradient-3" x1="30.89" y1="1095.94" x2="30.89" y2="1077.28" xlink:href="#linear-gradient" />
        <linearGradient id="linear-gradient-4" x1="27.98" y1="1093.21" x2="27.98" y2="1080" xlink:href="#linear-gradient" />
        <linearGradient id="linear-gradient-5" x1="25.04" y1="1090.49" x2="25.04" y2="1082.73" xlink:href="#linear-gradient" />
        <linearGradient id="linear-gradient-6" x1="45.54" y1="1095.94" x2="45.54" y2="1077.28" xlink:href="#linear-gradient" />
        <linearGradient id="linear-gradient-7" x1="42.6" y1="1093.21" x2="42.6" y2="1080" xlink:href="#linear-gradient" />
        <linearGradient id="linear-gradient-8" x1="39.69" y1="1091.74" x2="39.69" y2="1081.47" xlink:href="#linear-gradient" />
        <linearGradient id="linear-gradient-9" x1="48.45" y1="1093.21" x2="48.45" y2="1080" xlink:href="#linear-gradient" />
        <linearGradient id="linear-gradient-10" x1="51.39" y1="1090.49" x2="51.39" y2="1082.73" xlink:href="#linear-gradient" />
    </defs>
    <title>sound</title>
    <g id="Layer_2" data-name="Layer 2">
        <g id="Layer_1-2" data-name="Layer 1">
            <path class="fill animated pulse infinite" d="M141.68,237.73c-.57-.17-1.14-.3-1.73-.45l-.17,0a18.39,18.39,0,0,0,1-17,19.21,19.21,0,0,0-14-11,17.49,17.49,0,0,0,.38-16.4,18.76,18.76,0,0,0-12.94-10.37l.64-.67,5.93-6c4.84-4.86,9.85-9.89,14.83-14.79,4.62-4.54,6.41-9.93,5.31-16a18.17,18.17,0,0,0-12.54-14.69c-6.9-2.37-13.31-.9-18.55,4.26q-2.55,2.5-5.08,5.06L91.94,152.51Q75.49,169,59.05,185.42c-3.23,3.23-6.43,6.49-9.73,9.83l-4.1,4.16a42.42,42.42,0,0,0-8-15.82c-5.29-6.6-10.67-10.41-16.95-12C12.7,169.68,6.15,173.4,4,180.84a15.33,15.33,0,0,0,.44,9.66,75.1,75.1,0,0,1,4.7,28c-.18,5.16-.6,10.41-1,15.48-.11,1.3-.21,2.59-.31,3.88,0,.48-.06,1-.08,1.45A14,14,0,0,1,7,244.12c-4.19,9.39-6.43,18-6.86,26.31-.62,12,1.93,21.75,7.8,29.78a111,111,0,0,0,11.8,13l1.49,1.47a70.91,70.91,0,0,0,11.16,9.59,44.6,44.6,0,0,0,24.7,7,65.29,65.29,0,0,0,13.09-1.41c15.1-3.09,28.35-10.48,40.5-22.59q6.59-6.57,13.11-13.18c8.4-8.47,17.08-17.23,25.81-25.64a17.91,17.91,0,0,0,5-17.31A18.51,18.51,0,0,0,141.68,237.73ZM16,240.46c.14-3.24.44-6.54.73-9.73s.57-6.3.71-9.46a88.14,88.14,0,0,0-5.05-33.14,10.51,10.51,0,0,1-.62-2.61,5.66,5.66,0,0,1,1.72-5,4.89,4.89,0,0,1,3.2-1.07,7.86,7.86,0,0,1,2,.28c3.47.95,6.6,3,9.84,6.44,6.13,6.52,9.22,13.54,9.43,21.46.06,2.33,1,3.79,2.92,4.45,2.09.73,3.58-.37,4.88-1.67Q67.18,189,88.62,167.51l6.71-6.71q10.14-10.16,20.3-20.28a9.65,9.65,0,0,1,7-2.89,10.4,10.4,0,0,1,7.11,3.17c4.09,4.11,4.2,10.19.25,14.15-20,20-40.42,40.45-60.75,60.74-1.29,1.29-2.5,2.93-1.62,5.23a4.16,4.16,0,0,0,3,2.69,4.57,4.57,0,0,0,4.17-1.36c3.21-3.17,6.4-6.37,9.59-9.56L93,204.12q5.36-5.37,10.74-10.72a9.54,9.54,0,0,1,6.81-3,10.61,10.61,0,0,1,7.49,3.52,9.56,9.56,0,0,1-.36,13.57l-15.09,15.1L89,236.12c-2.25,2.26-1.77,4.25-1,5.53a4.31,4.31,0,0,0,5.11,2.09,6.71,6.71,0,0,0,2.31-1.6l3.37-3.35c5.88-5.85,12-11.89,17.87-17.92,3.1-3.17,6.44-4.1,10.21-2.85a10.1,10.1,0,0,1,7.15,8.59,8.6,8.6,0,0,1-2.73,7.73q-7.65,7.62-15.27,15.26l-5.73,5.73c-.46.45-.94.92-1.39,1.42a4.42,4.42,0,0,0,6.39,6.11c2.65-2.62,5.27-5.25,7.9-7.88q3.49-3.49,7-7c3.83-3.81,9.52-3.7,13.53.26a10.24,10.24,0,0,1,3.21,7.22,9,9,0,0,1-2.7,6.44l-9,9c-10.38,10.44-21.11,21.23-31.79,31.71-10.22,10-22,16.46-35,19.12-2.58.53-5.24.81-7.18,1-.7.08-1.31.14-1.8.21-13.31-.13-22.59-3.73-30.1-11.67-2.35-2.5-4.84-4.95-7.24-7.31l-3.38-3.35c-6.4-6.4-9.81-14.32-10.42-24.23A55,55,0,0,1,13,251.05C14.5,247.68,15.81,244.34,16,240.46Z" />
            <polygon class="fill" points="155.74 176.13 159.7 180.85 163.67 177.18 159.45 172.76 155.74 176.13" />
            <polygon class="fill" points="118.47 99.17 117.58 93.21 112.14 94.22 113.65 100.2 118.47 99.17" />
            <polygon class="fill" points="84.94 128.89 79.04 127.35 77.94 132.84 84 133.69 84.94 128.89" />
            <polygon class="fill" points="161.39 170.6 166.15 174.48 169.44 170.01 164.35 166.63 161.39 170.6" />
            <polygon class="fill" points="141.81 183.46 143.67 189.27 148.85 187.34 146.45 181.69 141.81 183.46" />
            <polygon class="fill" points="91.81 114.69 86.91 111.08 83.87 115.73 89.12 118.87 91.81 114.69" />
            <polygon class="fill" points="165.86 164.07 171.29 166.97 173.57 161.88 167.93 159.62 165.86 164.07" />
            <polygon class="fill" points="110.81 101.03 108.71 95.29 103.6 97.41 106.26 102.94 110.81 101.03" />
            <polygon class="fill" points="103.65 104.28 100.42 99.11 95.84 102.15 99.5 107.08 103.65 104.28" />
            <polygon class="fill" points="97.14 108.83 93.24 104.56 89.13 108.28 93.42 112.21 97.14 108.83" />
            <polygon class="fill" points="87.69 121.46 82.18 118.84 80.05 123.99 85.85 125.99 87.69 121.46" />
            <polygon class="fill" points="149.16 180.49 152.06 185.84 156.8 182.96 153.36 177.85 149.16 180.49" />
            <polygon class="fill" points="168.99 156.84 174.79 158.53 176.13 153.17 170.08 152.02 168.99 156.84" />
            <polygon class="fill" points="170.75 144.22 170.75 149.08 176.6 149.63 176.86 144.22 170.75 144.22" />
            <path class="fill" d="M97.91,134.65l1.09-4-4.07-1.35-.17.43c-.93,2.26-1.29,3.56-.69,4.36a2.38,2.38,0,0,0,2.05.69c.43,0,.91,0,1.45-.09Z" />
            <polygon class="fill" points="140.01 174.19 144.22 172.32 144.68 172.04 142.59 168.1 138.43 169.96 140.01 174.19" />
            <polygon class="fill" points="156.45 149.41 160.82 150.23 161.39 145.21 156.9 144.78 156.45 149.41" />
            <polygon class="fill" points="109.12 117.52 113.05 115.19 111 111.17 106.6 113.78 109.12 117.52" />
            <polygon class="fill" points="107.15 119.12 104.14 115.81 100.34 119.25 103.6 122.06 107.15 119.12" />
            <polygon class="fill" points="156.62 160.83 152.88 158.39 150.13 162.06 153.61 164.95 156.62 160.83" />
            <polygon class="fill" points="115.35 113.8 115.57 114.22 119.41 113.07 119.84 112.85 118.84 108.54 113.93 110.08 115.35 113.8" />
            <polygon class="fill" points="102.3 124.33 98.5 121.82 95.98 126.27 99.97 128.27 102.3 124.33" />
            <polygon class="fill" points="151.41 167.24 148.27 163.97 144.83 166.83 147.45 170.46 151.41 167.24" />
            <polygon class="fill" points="160.07 153.25 155.71 151.95 154.15 156.16 158.19 158.07 160.07 153.25" />
            <polygon class="fill" points="176.82 140.58 176.17 137.33 170.27 138.25 170.65 141.09 176.82 140.58" />
            <polygon class="fill" points="140.18 190.16 138.96 184.25 136 184.66 137.03 190.63 140.18 190.16" />
            <polygon class="fill" points="83.55 136.75 77.7 136.27 77.4 139.48 83.55 139.48 83.55 136.75" />
            <polygon class="fill" points="124.27 98.78 124.27 92.89 121.11 92.89 121.48 98.78 124.27 98.78" />
            <polygon class="fill" points="161.32 141.82 160.92 138.69 156.45 139.44 156.99 142.38 161.32 141.82" />
            <polygon class="fill" points="122.36 112.52 125.25 112.52 125.25 108.05 122.11 108.2 122.36 112.52" />
            <polygon class="fill" points="93 140.46 97.47 140.46 97.3 137.51 93 137.51 93 140.46" />
            <polygon class="fill" points="133.08 171.33 133.82 175.77 136.97 174.93 135.9 170.64 133.08 171.33" />
            <path class="fill" d="M245.06,84.26a24.84,24.84,0,0,1,10.58,2.17l.53.26,1.95-6.6-.36-.19c-1.1-.57-5.27-2.44-12.94-2.44-17,0-28.44,11.5-28.44,28.6,0,16.75,10.57,27.58,26.93,27.58,6.76,0,11.85-1.34,14.36-2.6l.36-.18-1.68-6.46-.55.27a27.23,27.23,0,0,1-11.06,2.17c-12.56,0-20.06-7.85-20.06-21C224.68,92.52,232.49,84.26,245.06,84.26Z" />
            <rect class="fill" x="265.36" y="75.48" width="7.99" height="57.37" />
            <path class="fill" d="M288.09,78.25a4.76,4.76,0,0,0-4.86,4.87,4.64,4.64,0,0,0,4.7,4.79,5.06,5.06,0,0,0,3.7-1.45,4.53,4.53,0,0,0,1.25-3.35A4.67,4.67,0,0,0,288.09,78.25Z" />
            <rect class="fill" x="284.1" y="93.42" width="7.99" height="39.43" />
            <path class="fill" d="M321,99.18a15.7,15.7,0,0,1,7.85,1.76l.55.32,1.88-6.41-.37-.19a23.83,23.83,0,0,0-9.91-2c-12.45,0-21.14,8.6-21.14,20.91,0,12,7.89,20.11,19.63,20.11a26.34,26.34,0,0,0,11.27-2.28l.34-.18L329.73,125l-.55.25a19.36,19.36,0,0,1-8.38,1.86c-7.68,0-12.84-5.57-12.84-13.87C308,104.69,313.1,99.18,321,99.18Z" />
            <path class="fill" d="M370.07,93.42h-9.8l-11.43,13.44c-.83,1-1.83,2.23-2.69,3.37V75.48h-7.9v57.36h7.9V118.09l3-3.37,13.05,18.12H372l-17.26-23.09Z" />
            <path class="fill" d="M409.09,92.54c-11.7,0-19.55,8.4-19.55,20.91,0,11.93,7.77,20.27,18.91,20.27,9.78,0,19.64-6.47,19.64-20.91C428.09,100.69,420.45,92.54,409.09,92.54Zm-.32,34.94c-6.47,0-11.17-6-11.17-14.27,0-7.18,3.5-14.43,11.33-14.43,7.57,0,11,7.4,11,14.27C419.94,121.41,415.24,127.48,408.77,127.48Z" />
            <path class="fill" d="M453.39,92.54c-4.46,0-8.45,2.8-10.51,7.25l-.2-6.37h-7.13l0,.53c.22,3.28.32,7,.32,12v26.93h7.91v-21a19.68,19.68,0,0,1,.31-3.17c.94-5.2,4.43-8.56,8.87-8.56a10,10,0,0,1,2.28.23l.61.14V92.89l-.38-.09A8.13,8.13,0,0,0,453.39,92.54Z" />
            <path class="fill" d="M488.11,82.23l-7.83,2.09v9.1h-5.95v6.32h5.95V120.2c0,5,.9,8.33,2.83,10.33,1.78,2,4.51,3.11,7.91,3.11a17.63,17.63,0,0,0,6.39-1l.33-.14-.38-6.21-.59.16a15,15,0,0,1-3.92.46c-3.32,0-4.74-2.08-4.74-7V99.74h10V93.42h-10Z" />
            <path class="fill" d="M533,123.13V108.76c0-7.4-2.62-16.22-15.11-16.22A24.26,24.26,0,0,0,505,96l-.32.21,1.92,5.58.54-.35a18.56,18.56,0,0,1,9.73-2.77c5.46,0,8.23,2.82,8.23,8.39v.29c-9,0-15.74,2-19.51,5.76a12.27,12.27,0,0,0-3.59,9c0,5.56,3.83,11.54,12.25,11.54a14.94,14.94,0,0,0,11.6-5.2l.5,4.32h7.39l-.11-.59A52.81,52.81,0,0,1,533,123.13Zm-7.75-9.9v6.17a6.65,6.65,0,0,1-.37,2.06,9.11,9.11,0,0,1-8.82,6.1c-2.94,0-6.09-1.62-6.09-6.17a6.5,6.5,0,0,1,1.91-4.82c2.27-2.22,6.55-3.35,12.74-3.35Z" />
            <path class="fill" d="M563.83,92.54a15.66,15.66,0,0,0-13.38,6.64l-.28-5.76H542.9l0,.52c.16,3.84.31,7.69.31,12.52v42.1h7.91v-20a14.3,14.3,0,0,0,11.49,5.16c8.94,0,18-6.54,18-21.15C580.6,101,573.55,92.54,563.83,92.54Zm-2.14,6.56c7.55,0,10.93,6.93,10.93,13.79,0,8.85-4.28,14.35-11.17,14.35a10.25,10.25,0,0,1-10-7.77,15,15,0,0,1-.31-2.77v-6.59a11.61,11.61,0,0,1,10.54-11Z" />
            <path class="fill" d="M613.87,91.85c0-7.14,2.28-10.61,7-10.61a10.08,10.08,0,0,1,4.24.83l.59.27,1.13-6.44-.37-.15a16.74,16.74,0,0,0-6.14-1.15,13.83,13.83,0,0,0-9.72,3.71c-3,2.91-4.6,7.54-4.6,13.78v1.33h-5.4v6.32H606v33.1h7.91V99.74h9.29V93.42h-9.29Z" />
            <path class="fill" d="M644.18,92.54c-11.7,0-19.56,8.4-19.56,20.91,0,11.93,7.78,20.27,18.92,20.27,9.77,0,19.63-6.47,19.63-20.91C663.17,100.69,655.54,92.54,644.18,92.54Zm-.32,34.94c-6.47,0-11.17-6-11.17-14.27,0-7.18,3.5-14.43,11.33-14.43,7.56,0,11,7.4,11,14.27C655,121.41,650.33,127.48,643.86,127.48Z" />
            <path class="fill" d="M688.48,92.54c-4.47,0-8.45,2.8-10.51,7.25l-.2-6.37h-7.13l0,.53c.22,3.28.32,7,.32,12v26.93h7.91v-21a19.29,19.29,0,0,1,.3-3.17c.95-5.2,4.43-8.56,8.88-8.56a9.85,9.85,0,0,1,2.27.23l.61.14V92.89l-.38-.09A8.06,8.06,0,0,0,688.48,92.54Z" />
            <path class="fill" d="M726.84,109.57c-4.82-1.84-7-3.15-7-6s2.39-4.74,5.93-4.74a14.39,14.39,0,0,1,7.6,2.15l.53.34L736,95.2l-.35-.2A19.84,19.84,0,0,0,726,92.54c-8.1,0-13.76,4.85-13.76,11.78,0,5,3.63,8.9,10.49,11.34,5,1.86,6.82,3.59,6.82,6.6,0,3.27-2.6,5.22-7,5.22a17.89,17.89,0,0,1-8.94-2.7l-.54-.36L711,130.74l.35.21a22.42,22.42,0,0,0,11,2.69c9,0,14.87-4.72,14.87-12C737.25,116,734.14,112.35,726.84,109.57Z" />
            <path class="fill" d="M762,92.54c-11.7,0-19.56,8.4-19.56,20.91,0,11.93,7.78,20.27,18.92,20.27,9.77,0,19.64-6.47,19.64-20.91C781,100.69,773.36,92.54,762,92.54Zm-.32,34.94c-6.47,0-11.17-6-11.17-14.27,0-7.18,3.5-14.43,11.33-14.43,7.56,0,11,7.4,11,14.27C772.85,121.41,768.15,127.48,761.68,127.48Z" />
            <path class="fill" d="M822,121.86V93.42h-8V117.5a9.75,9.75,0,0,1-.6,3.38,9.55,9.55,0,0,1-8.75,6c-5.43,0-8.07-3.83-8.07-11.73V93.42h-8v23c0,15.64,9.62,17.33,13.76,17.33a14.82,14.82,0,0,0,12.44-6.33l.35,5.45h7.2l0-.54C822.06,129.58,822,126.26,822,121.86Z" />
            <path class="fill" d="M852.19,92.54a14.7,14.7,0,0,0-12.45,6.33l-.34-5.45h-7.2l0,.54c.22,3,.32,6.06.32,10.36v28.52h8v-23.6a9.62,9.62,0,0,1,.46-3.11,9.38,9.38,0,0,1,8.89-6.79c6.93,0,8.39,5.9,8.39,10.85v22.65h8V109.4C866.27,93.36,854.54,92.54,852.19,92.54Z" />
            <path class="fill" d="M911.12,132.3c-.27-3-.31-7.49-.31-9.88V75.48h-8v22c-2.36-3.12-6.46-4.95-11.25-4.95a16.57,16.57,0,0,0-11.82,4.94c-3.85,3.87-6,9.63-5.91,16.21,0,11.6,7.12,20,16.94,20a15,15,0,0,0,12.82-6.56l.27,5.68h7.3Zm-8.3-22.74v6.67a11.75,11.75,0,0,1-.3,2.9,10,10,0,0,1-9.76,8c-8,0-10.85-7.39-10.85-13.71,0-8.58,4.42-14.35,11-14.35a9.77,9.77,0,0,1,9.6,7.73A11.55,11.55,0,0,1,902.82,109.56Z" />
            <path class="fill" d="M1140,0H94.35A50.26,50.26,0,0,0,44.09,50.26v35a4.78,4.78,0,0,0,4.78,4.78h0a4.78,4.78,0,0,0,4.78-4.78v-35A40.7,40.7,0,0,1,94.35,9.57H1140a40.7,40.7,0,0,1,40.7,40.69V166.55a40.7,40.7,0,0,1-40.7,40.69H182.78A4.78,4.78,0,0,0,178,212h0a4.78,4.78,0,0,0,4.78,4.78H1140a50.26,50.26,0,0,0,50.26-50.26V50.26A50.26,50.26,0,0,0,1140,0Z" />
            <path class="cls-1" d="M1040.31,90a4.83,4.83,0,0,0-4.91,4.91v28.78a4.91,4.91,0,1,0,9.81,0V94.89A4.82,4.82,0,0,0,1040.31,90Z" />
            <path class="cls-2" d="M1025.1,74.77a4.83,4.83,0,0,0-4.91,4.91v59.2a4.91,4.91,0,1,0,9.81,0V79.68A4.82,4.82,0,0,0,1025.1,74.77Z" />
            <path class="cls-3" d="M1009.72,60.54a4.82,4.82,0,0,0-4.9,4.91v87.66a4.91,4.91,0,1,0,9.81,0V65.45A4.83,4.83,0,0,0,1009.72,60.54Z" />
            <path class="cls-4" d="M994.51,74.77a4.82,4.82,0,0,0-4.9,4.91v59.2a4.91,4.91,0,1,0,9.81,0V79.68A4.83,4.83,0,0,0,994.51,74.77Z" />
            <path class="cls-5" d="M979.14,89a4.83,4.83,0,0,0-4.91,4.91v30.74a4.91,4.91,0,0,0,9.82,0V93.91A4.83,4.83,0,0,0,979.14,89Z" />
            <path class="cls-6" d="M1086.26,60.54a4.82,4.82,0,0,0-4.9,4.91v87.66a4.91,4.91,0,1,0,9.81,0V65.45A4.83,4.83,0,0,0,1086.26,60.54Z" />
            <path class="cls-7" d="M1070.89,74.77a4.83,4.83,0,0,0-4.91,4.91v59.2a4.91,4.91,0,1,0,9.82,0V79.68A4.83,4.83,0,0,0,1070.89,74.77Z" />
            <path class="cls-8" d="M1055.68,82.46a4.82,4.82,0,0,0-4.91,4.9v43.83a4.91,4.91,0,1,0,9.82,0V87.36A4.82,4.82,0,0,0,1055.68,82.46Z" />
            <path class="cls-9" d="M1101.47,74.77a4.82,4.82,0,0,0-4.9,4.91v59.2a4.91,4.91,0,1,0,9.81,0V79.68A4.83,4.83,0,0,0,1101.47,74.77Z" />
            <path class="cls-10" d="M1116.85,89a4.83,4.83,0,0,0-4.91,4.91v30.74a4.91,4.91,0,1,0,9.81,0V93.91A4.82,4.82,0,0,0,1116.85,89Z" />
        </g>
    </g>
</svg>